<svg width="2048" height="1024" viewBox="0 0 2048 1024" fill="none" xmlns="http://www.w3.org/2000/svg">
<path d="M1024 604.528V227H1083.59L1160.73 397.427L1237.87 227H1297.46V604.528H1243.72V335.944L1183.07 470.775H1138.38L1077.73 336.483V604.528H1024Z" fill="#00C49A"/>
<path d="M1478.67 611C1453.49 611 1430.97 605.786 1411.1 595.36C1391.6 584.933 1376.17 569.112 1364.82 547.899C1353.47 526.326 1347.79 499.18 1347.79 466.461V227H1404.19V469.697C1404.19 498.461 1410.93 520.753 1424.4 536.573C1437.88 552.034 1456.33 559.764 1479.73 559.764C1503.14 559.764 1521.59 552.034 1535.06 536.573C1548.54 520.753 1555.28 498.461 1555.28 469.697V227H1611.68V466.461C1611.68 499.18 1605.82 526.326 1594.12 547.899C1582.41 569.112 1566.45 584.933 1546.24 595.36C1526.37 605.786 1503.85 611 1478.67 611Z" fill="#00C49A"/>
<path d="M1669.46 604.528V227H1758.84C1818.78 227 1863.29 243.899 1892.37 277.697C1921.46 311.135 1936 357.157 1936 415.764C1936 474.371 1921.46 520.573 1892.37 554.371C1863.29 587.809 1818.78 604.528 1758.84 604.528H1669.46ZM1725.85 551.674H1756.71C1799.98 551.674 1831.19 539.449 1850.34 515C1869.5 490.191 1879.07 457.112 1879.07 415.764C1879.07 374.416 1869.5 341.517 1850.34 317.067C1831.19 292.258 1799.98 279.854 1756.71 279.854H1725.85V551.674Z" fill="#00C49A"/>
<path d="M1174.59 793.902V682.689H1139V671.497H1223.44V682.689H1187.85V793.902H1174.59Z" fill="#FB8F67"/>
<path d="M1339.24 796C1330.53 796 1322.83 794.135 1316.14 790.404C1309.45 786.557 1304.15 781.253 1300.24 774.492C1296.45 767.614 1294.56 759.57 1294.56 750.361C1294.56 741.151 1296.45 733.166 1300.24 726.404C1304.02 719.643 1309.26 714.397 1315.95 710.667C1322.77 706.936 1330.66 705.071 1339.62 705.071C1348.7 705.071 1356.4 706.995 1362.72 710.842C1369.03 714.572 1373.82 719.468 1377.1 725.53C1380.39 731.592 1382.03 738.12 1382.03 745.115C1382.03 746.281 1382.03 747.505 1382.03 748.787C1382.03 750.069 1381.96 751.526 1381.84 753.158H1307.43C1307.81 760.27 1309.51 766.157 1312.54 770.82C1315.7 775.366 1319.61 778.805 1324.28 781.137C1329.08 783.352 1334.06 784.459 1339.24 784.459C1346.94 784.459 1352.87 783.002 1357.04 780.087C1361.33 777.056 1364.48 772.976 1366.5 767.847H1379.38C1377.36 775.658 1373 782.302 1366.31 787.781C1359.75 793.26 1350.72 796 1339.24 796ZM1339.05 716.262C1331.1 716.262 1324.09 718.536 1318.03 723.082C1312.1 727.628 1308.63 733.924 1307.62 741.967H1369.15C1368.65 733.807 1365.62 727.512 1360.06 723.082C1354.64 718.536 1347.63 716.262 1339.05 716.262Z" fill="#FB8F67"/>
<path d="M1496.88 796C1488.8 796 1481.48 794.251 1474.91 790.754C1468.35 787.14 1463.11 781.953 1459.2 775.191C1455.29 768.43 1453.33 760.211 1453.33 750.536C1453.33 740.86 1455.29 732.641 1459.2 725.88C1463.24 719.118 1468.54 713.989 1475.1 710.492C1481.67 706.878 1488.93 705.071 1496.88 705.071C1508.36 705.071 1517.39 707.694 1523.95 712.94C1530.64 718.186 1534.93 725.122 1536.83 733.749H1523.57C1521.93 728.503 1518.78 724.364 1514.11 721.333C1509.56 718.186 1503.82 716.612 1496.88 716.612C1491.7 716.612 1486.84 717.836 1482.3 720.284C1477.75 722.732 1474.03 726.463 1471.13 731.475C1468.35 736.372 1466.96 742.725 1466.96 750.536C1466.96 758.23 1468.35 764.641 1471.13 769.771C1474.03 774.783 1477.75 778.514 1482.3 780.962C1486.84 783.41 1491.7 784.634 1496.88 784.634C1504.32 784.634 1510.26 783.06 1514.67 779.913C1519.09 776.648 1522.06 772.452 1523.57 767.322H1536.83C1534.55 776.299 1529.95 783.352 1523 788.481C1516.19 793.494 1507.48 796 1496.88 796Z" fill="#FB8F67"/>
<path d="M1612.67 793.902V668H1625.93V720.284C1628.45 715.854 1632.68 712.24 1638.61 709.443C1644.54 706.528 1650.98 705.071 1657.92 705.071C1669.41 705.071 1678.12 708.277 1684.05 714.689C1689.98 721.1 1692.95 729.843 1692.95 740.918V793.902H1679.7V742.317C1679.7 734.273 1677.55 727.978 1673.26 723.432C1668.97 718.885 1662.91 716.612 1655.08 716.612C1649.91 716.612 1645.05 717.719 1640.51 719.934C1636.09 722.149 1632.55 725.413 1629.9 729.727C1627.25 733.924 1625.93 739.169 1625.93 745.464V793.902H1612.67Z" fill="#FB8F67"/>
<path d="M1809.5 793.902C1806.1 793.902 1803.13 792.794 1800.61 790.579C1798.21 788.248 1797.01 785.508 1797.01 782.361C1797.01 779.213 1798.21 776.532 1800.61 774.317C1803.13 771.985 1806.1 770.82 1809.5 770.82C1812.91 770.82 1815.82 771.985 1818.21 774.317C1820.74 776.532 1822 779.213 1822 782.361C1822 785.508 1820.74 788.248 1818.21 790.579C1815.82 792.794 1812.91 793.902 1809.5 793.902Z" fill="#FB8F67"/>
<rect x="128" y="128" width="768" height="768" fill="#533A71"/>
<rect x="256" y="256" width="512" height="512" fill="#F8E16C"/>
<rect x="384" y="384" width="128" height="128" fill="#9E2B25"/>
<rect x="512" y="384" width="128" height="128" fill="#FB8F67"/>
<rect x="512" y="512" width="128" height="128" fill="#9E2B25"/>
<rect x="384" y="512" width="128" height="128" fill="#FB8F67"/>
</svg>
